<svg viewBox="0 0 939.086614173 428.850393701" width="939.086614173pt" height="428.850393701pt" xmlns="http://www.w3.org/2000/svg" xmlns:xlink="http://www.w3.org/1999/xlink" xmlns:h5="http://www.w3.org/1999/xhtml"><g transform="translate(16 16)"><path fill="none" stroke="#000000" stroke-width="5" stroke-linecap="butt" stroke-linejoin="miter" stroke-miterlimit="4" d="M 0 0m 453.543307087 113.385826772h -453.543307087v -113.385826772h 453.543307087"/><path fill="none" stroke="#000000" stroke-width="2" stroke-linecap="butt" stroke-linejoin="miter" stroke-miterlimit="4" transform="translate(0 36.86374928)" d="M 0 0m 0 19.829164106h 453.543307087v -19.829164106"/><path fill="none" stroke="#000000" stroke-width="2" stroke-linecap="butt" stroke-linejoin="miter" stroke-miterlimit="4" stroke-dashoffset="0" stroke-dasharray="" transform="translate(451.417322835 31.194457943)" d="M 0 0m 2.125984252 0l 2.125984252 5.669291339h -4.251968504l 2.125984252 -5.669291339Z "/><path fill="none" stroke="#ee6677" stroke-width="5" stroke-linecap="butt" stroke-linejoin="miter" stroke-miterlimit="4" transform="translate(0 28.346456693)" d="M 0 0m 0 28.346456693l 9.070866142 -0.890383722l 9.070866142 -0.889505021l 9.070866142 -0.887748485l 9.070866142 -0.885115849l 9.070866142 -0.881609711l 9.070866142 -0.87723353l 9.070866142 -0.871991626l 9.070866142 -0.865889171l 9.070866142 -0.858932189l 9.070866142 -0.851127543l 9.070866142 -0.842482938l 9.070866142 -0.833006904l 9.070866142 -0.822708792l 9.070866142 -0.811598767l 9.070866142 -0.799687791l 9.070866142 -0.78698762l 9.070866142 -0.773510787l 9.070866142 -0.759270592l 9.070866142 -0.744281089l 9.070866142 -0.728557071l 9.070866142 -0.712114054l 9.070866142 -0.694968267l 9.070866142 -0.67713663l 9.070866142 -0.658636742l 9.070866142 -0.639486858l 9.070866142 -0.619705878l 9.070866142 -0.599313322l 9.070866142 -0.578329318l 9.070866142 -0.556774571l 9.070866142 -0.534670356l 9.070866142 -0.512038485l 9.070866142 -0.488901295l 9.070866142 -0.465281617l 9.070866142 -0.441202763l 9.070866142 -0.416688495l 9.070866142 -0.391763006l 9.070866142 -0.366450894l 9.070866142 -0.34077714l 9.070866142 -0.314767079l 9.070866142 -0.288446381l 9.070866142 -0.261841022l 9.070866142 -0.234977257l 9.070866142 -0.207881598l 9.070866142 -0.180580785l 9.070866142 -0.15310176l 9.070866142 -0.125471642l 9.070866142 -0.0977177l 9.070866142 -0.069867321l 9.070866142 -0.041947992l 9.070866142 -0.013987265l 9.070866142 0.013987265l 9.070866142 0.041947992l 9.070866142 0.069867321l 9.070866142 0.0977177l 9.070866142 0.125471642l 9.070866142 0.15310176l 9.070866142 0.180580785l 9.070866142 0.207881598l 9.070866142 0.234977257l 9.070866142 0.261841022l 9.070866142 0.288446381l 9.070866142 0.314767079l 9.070866142 0.34077714l 9.070866142 0.366450894l 9.070866142 0.391763006l 9.070866142 0.416688495l 9.070866142 0.441202763l 9.070866142 0.465281617l 9.070866142 0.488901295l 9.070866142 0.512038485l 9.070866142 0.534670356l 9.070866142 0.556774571l 9.070866142 0.578329318l 9.070866142 0.599313322l 9.070866142 0.619705878l 9.070866142 0.639486858l 9.070866142 0.658636742l 9.070866142 0.67713663l 9.070866142 0.694968267l 9.070866142 0.712114054l 9.070866142 0.728557071l 9.070866142 0.744281089l 9.070866142 0.759270592l 9.070866142 0.773510787l 9.070866142 0.78698762l 9.070866142 0.799687791l 9.070866142 0.811598767l 9.070866142 0.822708792l 9.070866142 0.833006904l 9.070866142 0.842482938l 9.070866142 0.851127543l 9.070866142 0.858932189l 9.070866142 0.865889171l 9.070866142 0.871991626l 9.070866142 0.87723353l 9.070866142 0.881609711l 9.070866142 0.885115849l 9.070866142 0.887748485l 9.070866142 0.889505021l 9.070866142 0.890383722"/><path fill="none" transform="translate(222.59128189 56.692913386)" d="M 0 0h 36.7072v 44.234582677h -36.7072v -44.234582677Z "/><g transform="translate(222.591281811 56.692913354)"><g transform="matrix(1 0 0 -1 3.2 20.586582677)"><use xlink:href="#g30BF13DFFC224F6A00161807D89BD60" x="0" y="0" fill="#000000" fill-rule="nonzero"/></g><g transform="matrix(1 0 0 -1 15.9456 20.586582677)"><use xlink:href="#gD24EDF630F36B9148E31EBFA1350E606" x="0" y="0" fill="#000000" fill-rule="nonzero"/></g><g transform="matrix(1 0 0 -1 11.9808 44.234582677)"><use xlink:href="#gCCC4235621A3BCE7057E8AA39B873E26" x="0" y="0" fill="#000000" fill-rule="nonzero"/></g><path fill="none" stroke="#000000" stroke-width="1.536" stroke-linecap="butt" stroke-linejoin="miter" stroke-miterlimit="4" transform="translate(3.2 25.194582677)" d="M 0 0h 30.3072"/></g><path fill="none" stroke="#000000" stroke-width="5" stroke-linecap="butt" stroke-linejoin="miter" stroke-miterlimit="4" transform="translate(0 141.732283465)" d="M 0 0m 453.543307087 113.385826772h -453.543307087v -113.385826772h 453.543307087"/><path fill="none" stroke="#000000" stroke-width="2" stroke-linecap="butt" stroke-linejoin="miter" stroke-miterlimit="4" transform="translate(0 198.42519685)" d="M 0 0h 453.543307087v 19.829164106"/><path fill="none" stroke="#000000" stroke-width="2" stroke-linecap="butt" stroke-linejoin="miter" stroke-miterlimit="4" stroke-dashoffset="0" stroke-dasharray="" transform="translate(451.417322835 218.254360955)" d="M 0 0m 2.125984252 5.669291339l -2.125984252 -5.669291339h 4.251968504l -2.125984252 5.669291339Z "/><path fill="none" stroke="#4477aa" stroke-width="5" stroke-linecap="butt" stroke-linejoin="miter" stroke-miterlimit="4" transform="translate(0 170.092727423)" d="M 0 0m 0 28.332469428l 9.070866142 -2.667637228l 9.070866142 -2.643959091l 9.070866142 -2.596812986l 9.070866142 -2.526617385l 9.070866142 -2.43399535l 9.070866142 -2.319768999l 9.070866142 -2.184952214l 9.070866142 -2.030741639l 9.070866142 -1.858506058l 9.070866142 -1.669774245l 9.070866142 -1.466221397l 9.070866142 -1.249654265l 9.070866142 -1.021995113l 9.070866142 -0.78526466l 9.070866142 -0.541564142l 9.070866142 -0.293056663l 9.070866142 -0.041947992l 9.070866142 0.209533012l 9.070866142 0.459154187l 9.070866142 0.704699877l 9.070866142 0.9439906l 9.070866142 1.174902396l 9.070866142 1.395385675l 9.070866142 1.603483413l 9.070866142 1.797348517l 9.070866142 1.97526023l 9.070866142 2.135639392l 9.070866142 2.277062469l 9.070866142 2.398274177l 9.070866142 2.498198634l 9.070866142 2.575948903l 9.070866142 2.630834868l 9.070866142 2.662369356l 9.070866142 2.670272464l 9.070866142 2.654474046l 9.070866142 2.615114328l 9.070866142 2.55254267l 9.070866142 2.467314463l 9.070866142 2.360186197l 9.070866142 2.232108752l 9.070866142 2.084218952l 9.070866142 1.917829477l 9.070866142 1.734417211l 9.070866142 1.535610136l 9.070866142 1.323172876l 9.070866142 1.09899104l 9.070866142 0.865054482l 9.070866142 0.623439639l 9.070866142 0.376291102l 9.070866142 0.125802578l 9.070866142 -0.125802578l 9.070866142 -0.376291102l 9.070866142 -0.623439639l 9.070866142 -0.865054482l 9.070866142 -1.09899104l 9.070866142 -1.323172876l 9.070866142 -1.535610136l 9.070866142 -1.734417211l 9.070866142 -1.917829477l 9.070866142 -2.084218952l 9.070866142 -2.232108752l 9.070866142 -2.360186197l 9.070866142 -2.467314463l 9.070866142 -2.55254267l 9.070866142 -2.615114328l 9.070866142 -2.654474046l 9.070866142 -2.670272464l 9.070866142 -2.662369356l 9.070866142 -2.630834868l 9.070866142 -2.575948903l 9.070866142 -2.498198634l 9.070866142 -2.398274177l 9.070866142 -2.277062469l 9.070866142 -2.135639392l 9.070866142 -1.97526023l 9.070866142 -1.797348517l 9.070866142 -1.603483413l 9.070866142 -1.395385675l 9.070866142 -1.174902396l 9.070866142 -0.9439906l 9.070866142 -0.704699877l 9.070866142 -0.459154187l 9.070866142 -0.209533012l 9.070866142 0.041947992l 9.070866142 0.293056663l 9.070866142 0.541564142l 9.070866142 0.78526466l 9.070866142 1.021995113l 9.070866142 1.249654265l 9.070866142 1.466221397l 9.070866142 1.669774245l 9.070866142 1.858506058l 9.070866142 2.030741639l 9.070866142 2.184952214l 9.070866142 2.319768999l 9.070866142 2.43399535l 9.070866142 2.526617385l 9.070866142 2.596812986l 9.070866142 2.643959091l 9.070866142 2.667637228"/><path fill="none" transform="translate(222.59128189 198.42519685)" d="M 0 0h 36.7072v 44.682582677h -36.7072v -44.682582677Z "/><g transform="translate(222.591281811 198.42519674)"><g transform="matrix(1 0 0 -1 3.2 20.586582677)"><use xlink:href="#g30BF13DFFC224F6A00161807D89BD60" x="0" y="0" fill="#000000" fill-rule="nonzero"/></g><g transform="matrix(1 0 0 -1 15.9456 20.586582677)"><use xlink:href="#gD24EDF630F36B9148E31EBFA1350E606" x="0" y="0" fill="#000000" fill-rule="nonzero"/></g><g transform="matrix(1 0 0 -1 11.9808 44.234582677)"><use xlink:href="#g527CD8E04AF45995A0A7F18566152E8F" x="0" y="0" fill="#000000" fill-rule="nonzero"/></g><path fill="none" stroke="#000000" stroke-width="1.536" stroke-linecap="butt" stroke-linejoin="miter" stroke-miterlimit="4" transform="translate(3.2 25.194582677)" d="M 0 0h 30.3072"/></g><path fill="none" stroke="#000000" stroke-width="5" stroke-linecap="butt" stroke-linejoin="miter" stroke-miterlimit="4" transform="translate(0 283.464566929)" d="M 0 0m 453.543307087 113.385826772h -453.543307087v -113.385826772h 453.543307087"/><path fill="none" stroke="#000000" stroke-width="2" stroke-linecap="butt" stroke-linejoin="miter" stroke-miterlimit="4" transform="translate(0 320.328316209)" d="M 0 0m 0 19.829164106h 453.543307087v -19.829164106"/><path fill="none" stroke="#000000" stroke-width="2" stroke-linecap="butt" stroke-linejoin="miter" stroke-miterlimit="4" stroke-dashoffset="0" stroke-dasharray="" transform="translate(451.417322835 314.659024872)" d="M 0 0m 2.125984252 0l 2.125984252 5.669291339h -4.251968504l 2.125984252 -5.669291339Z "/><path fill="none" stroke="#228833" stroke-width="5" stroke-linecap="butt" stroke-linejoin="miter" stroke-miterlimit="4" transform="translate(0 311.811023622)" d="M 0 0m 0 28.346456693l 9.070866142 -4.434362789l 9.070866142 -4.32517406l 9.070866142 -4.109485191l 9.070866142 -3.792607159l 9.070866142 -3.382342551l 9.070866142 -2.888793445l 9.070866142 -2.324112656l 9.070866142 -1.702204501l 9.070866142 -1.038382421l 9.070866142 -0.34899192l 9.070866142 0.34899192l 9.070866142 1.038382421l 9.070866142 1.702204501l 9.070866142 2.324112656l 9.070866142 2.888793445l 9.070866142 3.382342551l 9.070866142 3.792607159l 9.070866142 4.109485191l 9.070866142 4.32517406l 9.070866142 4.434362789l 9.070866142 4.434362789l 9.070866142 4.32517406l 9.070866142 4.109485191l 9.070866142 3.792607159l 9.070866142 3.382342551l 9.070866142 2.888793445l 9.070866142 2.324112656l 9.070866142 1.702204501l 9.070866142 1.038382421l 9.070866142 0.34899192l 9.070866142 -0.34899192l 9.070866142 -1.038382421l 9.070866142 -1.702204501l 9.070866142 -2.324112656l 9.070866142 -2.888793445l 9.070866142 -3.382342551l 9.070866142 -3.792607159l 9.070866142 -4.109485191l 9.070866142 -4.32517406l 9.070866142 -4.434362789l 9.070866142 -4.434362789l 9.070866142 -4.32517406l 9.070866142 -4.109485191l 9.070866142 -3.792607159l 9.070866142 -3.382342551l 9.070866142 -2.888793445l 9.070866142 -2.324112656l 9.070866142 -1.702204501l 9.070866142 -1.038382421l 9.070866142 -0.34899192l 9.070866142 0.34899192l 9.070866142 1.038382421l 9.070866142 1.702204501l 9.070866142 2.324112656l 9.070866142 2.888793445l 9.070866142 3.382342551l 9.070866142 3.792607159l 9.070866142 4.109485191l 9.070866142 4.32517406l 9.070866142 4.434362789l 9.070866142 4.434362789l 9.070866142 4.32517406l 9.070866142 4.109485191l 9.070866142 3.792607159l 9.070866142 3.382342551l 9.070866142 2.888793445l 9.070866142 2.324112656l 9.070866142 1.702204501l 9.070866142 1.038382421l 9.070866142 0.34899192l 9.070866142 -0.34899192l 9.070866142 -1.038382421l 9.070866142 -1.702204501l 9.070866142 -2.324112656l 9.070866142 -2.888793445l 9.070866142 -3.382342551l 9.070866142 -3.792607159l 9.070866142 -4.109485191l 9.070866142 -4.32517406l 9.070866142 -4.434362789l 9.070866142 -4.434362789l 9.070866142 -4.32517406l 9.070866142 -4.109485191l 9.070866142 -3.792607159l 9.070866142 -3.382342551l 9.070866142 -2.888793445l 9.070866142 -2.324112656l 9.070866142 -1.702204501l 9.070866142 -1.038382421l 9.070866142 -0.34899192l 9.070866142 0.34899192l 9.070866142 1.038382421l 9.070866142 1.702204501l 9.070866142 2.324112656l 9.070866142 2.888793445l 9.070866142 3.382342551l 9.070866142 3.792607159l 9.070866142 4.109485191l 9.070866142 4.32517406l 9.070866142 4.434362789"/><path fill="none" transform="translate(222.59128189 301.144188976)" d="M 0 0h 36.7072v 39.013291339h -36.7072v -39.013291339Z "/><g transform="translate(222.591281811 301.144188866)"><g transform="matrix(1 0 0 -1 3.2 9.248)"><use xlink:href="#g30BF13DFFC224F6A00161807D89BD60" x="0" y="0" fill="#000000" fill-rule="nonzero"/></g><g transform="matrix(1 0 0 -1 15.9456 9.248)"><use xlink:href="#gD24EDF630F36B9148E31EBFA1350E606" x="0" y="0" fill="#000000" fill-rule="nonzero"/></g><g transform="matrix(1 0 0 -1 11.9808 32.896)"><use xlink:href="#g4A6A5B3FEA90D2BD9719B571A6A47BD4" x="0" y="0" fill="#000000" fill-rule="nonzero"/></g><path fill="none" stroke="#000000" stroke-width="1.536" stroke-linecap="butt" stroke-linejoin="miter" stroke-miterlimit="4" transform="translate(3.2 13.856)" d="M 0 0h 30.3072"/></g></g><defs><symbol id="g30BF13DFFC224F6A00161807D89BD60" overflow="visible"><path d="M 0 0m 8.8256 15.0976c -0.2464 0 -0.4704 -0.112 -0.6496 -0.336l -7.3024 -10.2144v -0.9184h 6.4736v -1.7248c 0 -0.3808 -0.0672 -0.6496 -0.224 -0.7616c -0.1568 -0.112 -0.6496 -0.1792 -1.456 -0.1792h -0.6944v -0.9632l 3.3824 0.0896l 3.4272 -0.0896v 0.9632h -0.672c -0.8288 0 -1.3216 0.0672 -1.4784 0.1792c -0.1568 0.112 -0.224 0.3808 -0.224 0.7616v 1.7248h 2.4416v 0.9856h -2.4416v 9.7664c 0 0.5376 -0.0672 0.7168 -0.5824 0.7168Z m -1.3216 -2.7552v -7.728h -5.5552Z "/></symbol><symbol id="gD24EDF630F36B9148E31EBFA1350E606" overflow="visible"><path d="M 0 0m 6.2496 1.0976l 3.0688 12.2752c 0.0672 0.2912 0.1568 0.4928 0.224 0.6048c 0.1792 0.2464 0.8512 0.3584 1.9936 0.3584c 0.6272 0 0.9856 0 0.9856 0.5824c -0.0672 0.224 -0.112 0.3808 -0.4704 0.3808c -0.5152 -0.0224 -1.0528 -0.0448 -1.6352 -0.0672l -1.7696 -0.0224l -1.5232 0.0224c -0.2688 0 -1.1648 0.0672 -1.4336 0.0672c -0.3808 0 -0.56 -0.2016 -0.56 -0.5824c 0 -0.2464 0.1568 -0.3584 0.448 -0.3808l 1.1872 -0.0448c 0.2688 -0.0224 0.4256 -0.0224 0.4256 -0.224l -3.024 -12.2304c -0.112 -0.448 -0.336 -0.7168 -0.672 -0.8288c -0.112 -0.0224 -0.4928 -0.0448 -1.1872 -0.0448h -0.3808c -0.2464 -0.0224 -0.3808 -0.2016 -0.3808 -0.5376c 0 -0.3808 0.2912 -0.4256 0.7616 -0.4256h 11.1104c 0.6272 0 0.6496 0.0448 0.8512 0.4928c 0.0448 0.112 0.224 0.5824 0.5376 1.456l 0.9184 2.4416c 0.2912 0.7392 0.4256 1.1424 0.4256 1.2096c 0 0.2688 -0.1568 0.4032 -0.4704 0.4032c -0.2016 0 -0.336 -0.0896 -0.4032 -0.2464c -0.5824 -1.3888 -0.6048 -1.6128 -1.3664 -2.7328c -0.8064 -1.232 -2.4416 -2.0608 -4.5248 -2.0608h -2.5088c -0.4032 0 -0.6272 -0.0448 -0.6272 0.1344Z "/></symbol><symbol id="gCCC4235621A3BCE7057E8AA39B873E26" overflow="visible"><path d="M 0 0m 6.7872 14.8736c -0.9632 -0.9408 -2.3968 -1.4112 -4.3456 -1.4112v -0.9856c 1.3216 0 2.3744 0.2016 3.1808 0.5824v -11.1552c 0 -0.2912 -0.0224 -0.4704 -0.0896 -0.56c -0.112 -0.2464 -0.784 -0.3808 -2.016 -0.3808h -0.9184v -0.9632l 3.9872 0.0896l 4.0096 -0.0896v 0.9632h -0.9184c -1.232 0 -1.904 0.1344 -2.0384 0.3808c -0.0448 0.0896 -0.0672 0.2688 -0.0672 0.56v 12.2528c 0 0.6048 -0.0896 0.7168 -0.784 0.7168Z "/></symbol><symbol id="g527CD8E04AF45995A0A7F18566152E8F" overflow="visible"><path d="M 0 0m 7.9072 7.9072c 1.5008 0.6048 2.9344 1.9264 2.9344 3.8304c 0 1.008 -0.5376 1.8144 -1.5904 2.3968c -0.8736 0.4928 -1.8592 0.7392 -2.9568 0.7392c -1.0976 0 -2.0608 -0.224 -2.8896 -0.6944c -1.008 -0.56 -1.5232 -1.344 -1.5232 -2.352c 0 -0.8512 0.4256 -1.2768 1.2544 -1.2768c 0.6944 0 1.2096 0.5376 1.2096 1.232c 0 0.6944 -0.3584 1.0976 -1.0528 1.2096c 0.6496 0.6944 1.6128 1.0528 2.9344 1.0528c 1.456 0 2.2848 -0.8736 2.2848 -2.3072c 0 -1.0528 -0.2912 -1.904 -0.8512 -2.576c -0.6272 -0.7392 -1.0752 -0.8512 -2.3744 -0.9408c -0.6048 -0.0448 -1.008 0.0224 -1.008 -0.4256c 0 -0.2688 0.224 -0.4032 0.6496 -0.4032h 1.1872c 1.9264 0 2.8672 -1.456 2.8672 -3.472c 0 -1.9712 -0.896 -3.472 -2.7776 -3.472c -1.6352 0 -2.8224 0.448 -3.5616 1.3664c 0.784 0.0896 1.1872 0.5376 1.1872 1.3216c 0 0.7392 -0.56 1.2992 -1.2992 1.2992c -0.8736 0 -1.3216 -0.448 -1.3216 -1.3664c 0 -1.1424 0.5824 -2.0608 1.7248 -2.7104c 0.9632 -0.5376 2.0608 -0.8064 3.3152 -0.8064c 1.3664 0 2.5536 0.3808 3.584 1.1424c 1.12 0.8288 1.68 1.904 1.68 3.2256c 0 2.0832 -1.8144 3.5168 -3.6064 3.9872Z "/></symbol><symbol id="g4A6A5B3FEA90D2BD9719B571A6A47BD4" overflow="visible"><path d="M 0 0m 3.0912 6.9216c 0.1568 0 0.3136 0.112 0.4928 0.336c 0.7168 0.9184 1.7248 1.3664 3.0016 1.3664c 1.6352 0 2.464 -1.344 2.464 -4.0096c 0 -1.2992 -0.224 -2.2624 -0.6496 -2.8896c -0.6048 -0.8512 -1.4336 -1.2768 -2.5088 -1.2768c -1.568 0 -2.8224 0.896 -3.3152 2.0608c 0.7168 0 1.2096 0.4704 1.2096 1.1872c 0 0.7168 -0.4704 1.2096 -1.1872 1.2096c -0.7392 -0.112 -1.1872 -0.4704 -1.1872 -1.2768c 0 -1.1872 0.4704 -2.1728 1.4112 -2.9568c 0.8736 -0.7392 1.9264 -1.12 3.1136 -1.12c 1.456 0 2.7104 0.4928 3.7856 1.4336c 1.0752 0.9408 1.5904 2.128 1.5904 3.5392c 0 1.3664 -0.4704 2.5088 -1.3664 3.472c -0.896 0.9632 -2.016 1.4336 -3.3376 1.4336c -1.1872 0 -2.1728 -0.336 -3.0016 -0.9856v 3.8752c 0.7168 -0.1792 1.4112 -0.2688 2.0608 -0.2688c 0.8736 0 1.7024 0.1792 2.4864 0.56c 0.6272 0.2912 2.2176 1.2096 2.2176 1.8592c 0 0.2688 -0.1344 0.4032 -0.3808 0.4032c -1.232 -0.4704 -2.3968 -0.7168 -3.472 -0.7168c -1.0976 0 -2.1728 0.2016 -3.1808 0.6048c -0.1568 0.0672 -0.2464 0.112 -0.3136 0.112c -0.2464 0 -0.3808 -0.224 -0.3808 -0.6944v -6.5184c 0 -0.448 0.0224 -0.7392 0.448 -0.7392Z "/></symbol></defs></svg>