<svg viewBox="0 0 457.196850394 201.961574803" width="457.196850394pt" height="201.961574803pt" xmlns="http://www.w3.org/2000/svg" xmlns:xlink="http://www.w3.org/1999/xlink" xmlns:h5="http://www.w3.org/1999/xhtml"><g transform="translate(16 16)"><path fill="none" stroke="#ee6677" stroke-width="5" stroke-linecap="butt" stroke-linejoin="miter" stroke-miterlimit="4" transform="translate(0 42.519685039)" d="M 0 0m 141.732283465 28.346456693h -141.732283465v -28.346456693h 141.732283465"/><path fill="none" stroke="#4477aa" stroke-width="5" stroke-linecap="butt" stroke-linejoin="miter" stroke-miterlimit="4" transform="translate(141.732283465 70.866141732)" d="M 0 0m 283.464566929 42.519685039h -283.464566929v -42.519685039"/><path fill="none" stroke="#4477aa" stroke-width="5" stroke-linecap="butt" stroke-linejoin="miter" stroke-miterlimit="4" transform="translate(141.732283465)" d="M 0 0m 283.464566929 0h -283.464566929v 42.519685039"/><path fill="none" stroke="#000000" stroke-width="2" stroke-linecap="butt" stroke-linejoin="miter" stroke-miterlimit="4" transform="translate(8.517292587 141.732283465)" d="M 0 0h 124.697698291"/><path fill="none" stroke="#000000" stroke-width="2" stroke-linecap="butt" stroke-linejoin="miter" stroke-miterlimit="4" stroke-dashoffset="0" stroke-dasharray="" transform="translate(2.84800125 139.606299213)" d="M 0 0m 0 2.125984252l 5.669291339 -2.125984252v 4.251968504l -5.669291339 -2.125984252Z "/><path fill="none" stroke="#000000" stroke-width="2" stroke-linecap="butt" stroke-linejoin="miter" stroke-miterlimit="4" stroke-dashoffset="0" stroke-dasharray="" transform="translate(133.214990876 139.606299213)" d="M 0 0m 5.669291339 2.125984252l -5.669291339 2.125984252v -4.251968504l 5.669291339 2.125984252Z "/><path fill="none" transform="translate(42.434141732 141.732283465)" d="M 0 0h 56.864v 28.229291339h -56.864v -28.229291339Z "/><g transform="translate(42.434141669 141.732283417)"><g transform="matrix(1 0 0 -1 0 27.525291339)"><use xlink:href="#gC9C3572883A525592EDCA0AC04252A0E" x="0" y="0" fill="#000000" fill-rule="nonzero"/></g><g transform="matrix(1 0 0 -1 16 27.525291339)"><use xlink:href="#gC4071B6CB1C4270EE176AEDD7AAF49AF" x="0" y="0" fill="#000000" fill-rule="nonzero"/><use xlink:href="#g80C890270AA9FC4514F24286A3B94151" x="14.208" y="0" fill="#000000" fill-rule="nonzero"/></g></g><path fill="none" stroke="#000000" stroke-width="2" stroke-linecap="butt" stroke-linejoin="miter" stroke-miterlimit="4" transform="translate(150.249576052 141.732283465)" d="M 0 0h 266.429981755"/><path fill="none" stroke="#000000" stroke-width="2" stroke-linecap="butt" stroke-linejoin="miter" stroke-miterlimit="4" stroke-dashoffset="0" stroke-dasharray="" transform="translate(144.580284714 139.606299213)" d="M 0 0m 0 2.125984252l 5.669291339 -2.125984252v 4.251968504l -5.669291339 -2.125984252Z "/><path fill="none" stroke="#000000" stroke-width="2" stroke-linecap="butt" stroke-linejoin="miter" stroke-miterlimit="4" stroke-dashoffset="0" stroke-dasharray="" transform="translate(416.679557805 139.606299213)" d="M 0 0m 5.669291339 2.125984252l -5.669291339 2.125984252v -4.251968504l 5.669291339 2.125984252Z "/><path fill="none" transform="translate(247.032566929 141.732283465)" d="M 0 0h 72.864v 28.229291339h -72.864v -28.229291339Z "/><g transform="translate(247.032566929 141.732283417)"><g transform="matrix(1 0 0 -1 0 27.525291339)"><use xlink:href="#g8D42D52C41E49A9215FE4707422F56C9" x="0" y="0" fill="#000000" fill-rule="nonzero"/></g><g transform="matrix(1 0 0 -1 16 27.525291339)"><use xlink:href="#g3DE2F06D8E6FEC33FEC668F6FE1AAD79" x="0" y="0" fill="#000000" fill-rule="nonzero"/></g><g transform="matrix(1 0 0 -1 32 27.525291339)"><use xlink:href="#gC4071B6CB1C4270EE176AEDD7AAF49AF" x="0" y="0" fill="#000000" fill-rule="nonzero"/><use xlink:href="#g80C890270AA9FC4514F24286A3B94151" x="14.208" y="0" fill="#000000" fill-rule="nonzero"/></g></g><path fill="none" stroke="#ee6677" stroke-width="3" stroke-linecap="butt" stroke-linejoin="miter" stroke-miterlimit="4" transform="translate(0 49.607173471)" d="M 0 0m 0 7.085739915l 4.251968504 -0.333825241l 4.251968504 -0.333084066l 4.251968504 -0.33160336l 4.251968504 -0.329386412l 4.251968504 -0.326438144l 4.251968504 -0.322765102l 4.251968504 -0.31837544l 4.251968504 -0.313278906l 4.251968504 -0.307486814l 4.251968504 -0.301012024l 4.251968504 -0.293868912l 4.251968504 -0.286073338l 4.251968504 -0.277642609l 4.251968504 -0.268595444l 4.251968504 -0.258951931l 4.251968504 -0.248733479l 4.251968504 -0.237962777l 4.251968504 -0.226663738l 4.251968504 -0.214861448l 4.251968504 -0.202582113l 4.251968504 -0.189852994l 4.251968504 -0.176702355l 4.251968504 -0.163159392l 4.251968504 -0.149254174l 4.251968504 -0.135017575l 4.251968504 -0.120481203l 4.251968504 -0.105677333l 4.251968504 -0.090638832l 4.251968504 -0.075399091l 4.251968504 -0.059991945l 4.251968504 -0.044451601l 4.251968504 -0.028812564l 4.251968504 -0.013109556l 4.251968504 0.002622558l 4.251968504 0.01834885l 4.251968504 0.034034403l 4.251968504 0.049644391l 4.251968504 0.065144156l 4.251968504 0.080499285l 4.251968504 0.095675685l 4.251968504 0.110639661l 4.251968504 0.125357989l 4.251968504 0.139797992l 4.251968504 0.153927607l 4.251968504 0.167715466l 4.251968504 0.181130953l 4.251968504 0.194144285l 4.251968504 0.206726568l 4.251968504 0.218849866l 4.251968504 0.230487263l 4.251968504 0.241612921l 4.251968504 0.252202137l 4.251968504 0.262231401l 4.251968504 0.271678447l 4.251968504 0.280522298l 4.251968504 0.288743319l 4.251968504 0.296323258l 4.251968504 0.303245286l 4.251968504 0.309494033l 4.251968504 0.315055626l 4.251968504 0.319917716l 4.251968504 0.32406951l 4.251968504 0.327501787l 4.251968504 0.330206929l 4.251968504 0.33217893l 4.251968504 0.333413409l 4.251968504 0.333907628l 4.251968504 0.333660488l 4.251968504 0.332672539l 4.251968504 0.330945973l 4.251968504 0.328484624l 4.251968504 0.325293958l 4.251968504 0.321381057l 4.251968504 0.31675461l 4.251968504 0.311424889l 4.251968504 0.305403727l 4.251968504 0.298704492l 4.251968504 0.291342058l 4.251968504 0.283332772l 4.251968504 0.274694416l 4.251968504 0.26544617l 4.251968504 0.255608568l 4.251968504 0.24520345l 4.251968504 0.234253919l 4.251968504 0.222784286l 4.251968504 0.210820017l 4.251968504 0.198387674l 4.251968504 0.18551486l 4.251968504 0.172230158l 4.251968504 0.158563061l 4.251968504 0.144543915l 4.251968504 0.130203845l 4.251968504 0.11557469l 4.251968504 0.10068893l 4.251968504 0.085579616l 4.251968504 0.070280294l 4.251968504 0.054824931l 4.251968504 0.039247844l 4.251968504 0.023583617l 4.251968504 0.007867028"/><path fill="none" stroke="#4477aa" stroke-width="3" stroke-linecap="butt" stroke-linejoin="miter" stroke-miterlimit="4" transform="translate(141.732283465 14.173228346)" d="M 0 0m 0 42.519685039l 2.834645669 -0.667870185l 2.834645669 -0.667705398l 2.834645669 -0.667375865l 2.834645669 -0.666881666l 2.834645669 -0.666222925l 2.834645669 -0.665399803l 2.834645669 -0.664412504l 2.834645669 -0.663261271l 2.834645669 -0.661946388l 2.834645669 -0.660468179l 2.834645669 -0.65882701l 2.834645669 -0.657023285l 2.834645669 -0.65505745l 2.834645669 -0.652929989l 2.834645669 -0.650641427l 2.834645669 -0.64819233l 2.834645669 -0.6455833l 2.834645669 -0.642814983l 2.834645669 -0.63988806l 2.834645669 -0.636803255l 2.834645669 -0.633561328l 2.834645669 -0.630163079l 2.834645669 -0.626609347l 2.834645669 -0.622901009l 2.834645669 -0.619038979l 2.834645669 -0.61502421l 2.834645669 -0.610857693l 2.834645669 -0.606540457l 2.834645669 -0.602073565l 2.834645669 -0.597458121l 2.834645669 -0.592695263l 2.834645669 -0.587786166l 2.834645669 -0.582732042l 2.834645669 -0.577534138l 2.834645669 -0.572193736l 2.834645669 -0.566712153l 2.834645669 -0.561090743l 2.834645669 -0.555330891l 2.834645669 -0.549434021l 2.834645669 -0.543401585l 2.834645669 -0.537235074l 2.834645669 -0.530936008l 2.834645669 -0.524505941l 2.834645669 -0.51794646l 2.834645669 -0.511259184l 2.834645669 -0.504445762l 2.834645669 -0.497507876l 2.834645669 -0.490447237l 2.834645669 -0.483265587l 2.834645669 -0.475964699l 2.834645669 -0.468546374l 2.834645669 -0.461012442l 2.834645669 -0.453364762l 2.834645669 -0.445605221l 2.834645669 -0.437735734l 2.834645669 -0.429758242l 2.834645669 -0.421674714l 2.834645669 -0.413487143l 2.834645669 -0.405197551l 2.834645669 -0.396807983l 2.834645669 -0.388320508l 2.834645669 -0.37973722l 2.834645669 -0.371060239l 2.834645669 -0.362291703l 2.834645669 -0.353433778l 2.834645669 -0.344488648l 2.834645669 -0.335458521l 2.834645669 -0.326345624l 2.834645669 -0.317152207l 2.834645669 -0.307880537l 2.834645669 -0.298532901l 2.834645669 -0.289111608l 2.834645669 -0.27961898l 2.834645669 -0.270057361l 2.834645669 -0.260429109l 2.834645669 -0.2507366l 2.834645669 -0.240982226l 2.834645669 -0.231168393l 2.834645669 -0.221297522l 2.834645669 -0.21137205l 2.834645669 -0.201394425l 2.834645669 -0.191367108l 2.834645669 -0.181292575l 2.834645669 -0.17117331l 2.834645669 -0.161011811l 2.834645669 -0.150810585l 2.834645669 -0.140572149l 2.834645669 -0.130299028l 2.834645669 -0.119993758l 2.834645669 -0.109658882l 2.834645669 -0.099296948l 2.834645669 -0.088910515l 2.834645669 -0.078502145l 2.834645669 -0.068074405l 2.834645669 -0.057629869l 2.834645669 -0.047171113l 2.834645669 -0.036700719l 2.834645669 -0.026221269l 2.834645669 -0.01573535l 2.834645669 -0.005245548"/></g><defs><symbol id="gC9C3572883A525592EDCA0AC04252A0E" overflow="visible"><path d="M 0 0m 12.256 16.128c 1.056 0 1.568 0.544 1.568 1.632c 0 2.304 -1.728 3.552 -4.096 3.552c -2.656 0 -4.768 -1.248 -6.336 -3.776c -1.376 -2.176 -2.048 -4.64 -2.048 -7.424c 0 -4.064 0.736 -6.912 2.24 -8.608c 1.28 -1.472 2.752 -2.208 4.448 -2.208c 1.952 0 3.552 0.736 4.8 2.208c 1.184 1.408 1.792 3.104 1.792 5.056c 0 1.952 -0.576 3.616 -1.728 4.992c -1.216 1.472 -2.784 2.24 -4.672 2.24c -1.664 0 -2.944 -0.928 -3.808 -2.72v 0.192c 0 3.616 0.896 6.688 2.816 8.096c 0.832 0.608 1.696 0.896 2.56 0.896c 1.152 0 1.984 -0.32 2.528 -0.992c -1.088 0 -1.632 -0.608 -1.632 -1.568c 0 -0.896 0.672 -1.568 1.568 -1.568Z m -1.248 -5.248c 0.352 -0.736 0.544 -2.176 0.544 -4.288c 0 -2.08 -0.16 -3.456 -0.512 -4.16c -0.64 -1.312 -1.632 -1.984 -3.008 -1.984c -0.928 0 -1.632 0.32 -2.144 0.96c -0.416 0.512 -0.704 0.96 -0.832 1.312c -0.384 0.992 -0.576 2.496 -0.576 4.544c 0 0.896 0.128 1.76 0.352 2.592c 0.416 1.504 1.6 2.912 3.36 2.912c 1.248 0 2.208 -0.64 2.816 -1.888Z "/></symbol><symbol id="gC4071B6CB1C4270EE176AEDD7AAF49AF" overflow="visible"><path d="M 0 0m 8.032 13.312c 1.344 0 2.368 -0.32 3.072 -0.96c -0.768 -0.096 -1.312 -0.8 -1.312 -1.536c 0 -1.056 0.512 -1.568 1.568 -1.568c 1.056 0 1.568 0.544 1.568 1.6c 0 2.272 -2.464 3.488 -4.928 3.488c -1.984 0 -3.616 -0.704 -4.928 -2.176c -1.312 -1.472 -1.984 -3.232 -1.984 -5.248c 0 -1.952 0.672 -3.68 1.984 -5.12c 1.312 -1.44 2.912 -2.144 4.864 -2.144c 1.6 0 2.848 0.448 3.744 1.376c 0.736 0.736 1.216 1.472 1.472 2.24c 0.096 0.288 0.128 0.48 0.128 0.608c 0 0.288 -0.192 0.416 -0.544 0.416c -0.256 0 -0.416 -0.128 -0.512 -0.384c -0.672 -2.144 -1.984 -3.232 -4 -3.232c -0.928 0 -1.824 0.416 -2.72 1.28c -1.056 0.992 -1.568 2.656 -1.568 5.024c 0 3.2 1.216 6.336 4.096 6.336Z "/></symbol><symbol id="g80C890270AA9FC4514F24286A3B94151" overflow="visible"><path d="M 0 0m 10.08 13.216c 1.472 0 2.208 -1.12 2.208 -3.392v -7.296c 0 -0.608 -0.096 -0.992 -0.32 -1.12c -0.224 -0.128 -0.96 -0.192 -2.144 -0.192v -1.216l 3.712 0.096l 3.68 -0.096v 1.216c -1.184 0 -1.888 0.064 -2.112 0.192c -0.224 0.128 -0.352 0.512 -0.352 1.12v 5.76c 0 2.56 1.664 4.928 4.128 4.928c 1.504 0 2.24 -1.12 2.24 -3.392v -7.296c 0 -0.608 -0.128 -0.992 -0.352 -1.12c -0.224 -0.128 -0.96 -0.192 -2.144 -0.192v -1.216l 3.712 0.096l 3.68 -0.096v 1.216c -1.024 0 -1.696 0.032 -2.016 0.128c -0.32 0.096 -0.448 0.32 -0.448 0.704v 5.984c 0 1.504 -0.064 2.56 -0.16 3.168c -0.32 1.952 -1.76 2.944 -4.288 2.944c -2.016 0 -3.52 -0.928 -4.544 -2.816c -0.448 1.888 -1.856 2.816 -4.256 2.816c -2.016 0 -3.552 -0.96 -4.576 -2.88v 2.88l -4.704 -0.352v -1.216c 1.152 0 1.856 -0.096 2.112 -0.288c 0.256 -0.192 0.352 -0.608 0.352 -1.344v -8.416c 0 -0.608 -0.128 -0.992 -0.352 -1.12c -0.224 -0.128 -0.928 -0.192 -2.112 -0.192v -1.216l 3.712 0.096l 3.68 -0.096v 1.216c -1.184 0 -1.92 0.064 -2.144 0.192c -0.224 0.128 -0.352 0.512 -0.352 1.12v 5.76c 0 2.592 1.696 4.928 4.16 4.928Z "/></symbol><symbol id="g8D42D52C41E49A9215FE4707422F56C9" overflow="visible"><path d="M 0 0m 8.608 21.312c -1.312 -1.344 -3.232 -2.016 -5.76 -2.016v -1.248c 1.664 0 3.04 0.256 4.096 0.768v -16.192c 0 -0.576 -0.128 -0.96 -0.416 -1.12c -0.288 -0.16 -1.088 -0.256 -2.368 -0.256h -1.12v -1.248c 0.8 0.064 2.528 0.096 5.184 0.096c 2.656 0 4.384 -0.032 5.184 -0.096v 1.248h -1.12c -1.312 0 -2.112 0.096 -2.368 0.256c -0.256 0.16 -0.416 0.544 -0.416 1.12v 17.728c 0 0.768 -0.064 0.96 -0.896 0.96Z "/></symbol><symbol id="g3DE2F06D8E6FEC33FEC668F6FE1AAD79" overflow="visible"><path d="M 0 0m 7.968 -0.704c 4.512 0 6.752 3.648 6.752 10.944c 0 4.896 -1.024 8.16 -3.04 9.76c -1.12 0.864 -2.368 1.312 -3.68 1.312c -4.512 0 -6.752 -3.68 -6.752 -11.072c 0 -5.888 1.568 -10.944 6.72 -10.944Z m 3.584 17.472c 0.224 -1.12 0.32 -3.168 0.32 -6.144c 0 -2.944 -0.128 -5.12 -0.352 -6.528c -0.416 -2.56 -1.6 -3.84 -3.552 -3.84c -0.736 0 -1.472 0.288 -2.144 0.832c -0.864 0.736 -1.376 2.24 -1.6 4.544c -0.096 0.8 -0.128 2.464 -0.128 4.992c 0 2.784 0.096 4.736 0.256 5.792c 0.288 1.76 0.864 2.88 1.76 3.36c 0.704 0.384 1.312 0.576 1.856 0.576c 2.08 0 3.232 -1.696 3.584 -3.584Z "/></symbol></defs></svg>