<svg viewBox="0 0 85.195 61.27" width="85.195pt" height="61.27pt" xmlns="http://www.w3.org/2000/svg" xmlns:xlink="http://www.w3.org/1999/xlink" xmlns:h5="http://www.w3.org/1999/xhtml"><g transform="matrix(1 0 0 -1 11 50.27)"><use xlink:href="#g2E1DC3E1900E0797E0E791A9BBB6CF42" x="0" y="0" fill="#000000" fill-rule="nonzero"/></g><g transform="matrix(1 0 0 -1 40.37 41.91)"><use xlink:href="#g86B0F74D93B03BD001DE28D7793A32F6" x="-3.685" y="0" fill="#000000" fill-rule="nonzero"/></g><g transform="matrix(1 0 0 -1 40.37 50.27)"><use xlink:href="#g26A0C7CA56A12D93380A216B376C26B2" x="0" y="0" fill="#000000" fill-rule="nonzero"/></g><defs><symbol id="g2E1DC3E1900E0797E0E791A9BBB6CF42" overflow="visible"><path d="M 0 0m 9.46 19.965q 0 -0.88 -0.0825 -2.31q -0.0825 -1.43 -0.1375 -2.475h 0.22q 0.33 0.44 0.99 1.265q 0.66 0.825 1.3475 1.6775q 0.6875 0.8525 1.1825 1.4025l 9.405 9.955h 5.665l -11.935 -12.595l 12.76 -16.885h -5.83l -10.23 13.75l -3.355 -2.915v -10.835h -4.785v 41.8h 4.785v -21.835Z "/></symbol><symbol id="g86B0F74D93B03BD001DE28D7793A32F6" overflow="visible"><path d="M 0 0m -0.22 46.585q 8.03 0 13.5575 -2.6125q 5.5275 -2.6125 7.8375 -7.7275h -3.85q -1.925 2.97 -6.1875 4.675q -4.2625 1.705 -11.3025 1.705q -3.905 0 -7.26 -0.66q -3.355 -0.66 -5.885 -2.0625q -2.53 -1.4025 -4.07 -3.6575h -3.85q 2.805 5.5 8.3325 7.92q 5.5275 2.42 12.6775 2.42Z "/></symbol><symbol id="g26A0C7CA56A12D93380A216B376C26B2" overflow="visible"><path d="M 0 0m 18.7 30.03q 5.445 0 8.7725 -3.795q 3.3275 -3.795 3.3275 -11.44q 0 -5.005 -1.5125 -8.4425q -1.5125 -3.4375 -4.235 -5.17q -2.7225 -1.7325 -6.4075 -1.7325q -2.255 0 -4.015 0.605q -1.76 0.605 -2.9975 1.5675q -1.2375 0.9625 -2.1175 2.1175h -0.33q 0.11 -0.935 0.22 -2.365q 0.11 -1.43 0.11 -2.475v -12.1h -4.84v 42.68h 3.96l 0.66 -4.015h 0.22q 0.88 1.265 2.1175 2.31q 1.2375 1.045 2.97 1.65q 1.7325 0.605 4.0975 0.605Z m -0.88 -4.07q -2.97 0 -4.785 -1.1275q -1.815 -1.1275 -2.64 -3.3825q -0.825 -2.255 -0.88 -5.72v -0.935q 0 -3.63 0.77 -6.16q 0.77 -2.53 2.6125 -3.85q 1.8425 -1.32 5.0325 -1.32q 2.695 0 4.4275 1.485q 1.7325 1.485 2.585 4.0425q 0.8525 2.5575 0.8525 5.8575q 0 5.06 -1.9525 8.085q -1.9525 3.025 -6.0225 3.025Z "/></symbol></defs></svg>