<svg viewBox="0 0 460.483193701 305.489310236" width="460.483193701pt" height="305.489310236pt" xmlns="http://www.w3.org/2000/svg" xmlns:xlink="http://www.w3.org/1999/xlink" xmlns:h5="http://www.w3.org/1999/xhtml"><g transform="translate(5.5 5.5)"><g transform="translate(13.2 13.2)"><path fill="none" stroke="#000000" stroke-width="0.8" stroke-linecap="butt" stroke-linejoin="miter" stroke-miterlimit="4" transform="translate(127.21231861 6.4856)" d="M 0 0m 208.057649894 0h -208.057649894"/><path fill="#000000" fill-rule="nonzero" stroke="#000000" stroke-width="0.8" stroke-linecap="butt" stroke-linejoin="miter" stroke-miterlimit="4" stroke-dashoffset="0" stroke-dasharray="" transform="translate(121.543027272 4.359615748)" d="M 0 0m 0 2.125984252l 5.669291339 -2.125984252v 4.251968504l -5.669291339 -2.125984252Z "/><path fill="none" stroke="#000000" stroke-width="0.8" stroke-linecap="butt" stroke-linejoin="miter" stroke-miterlimit="4" transform="translate(169.732003649 119.871426772)" d="M 0 0m 165.537964855 0h -165.537964855"/><path fill="#000000" fill-rule="nonzero" stroke="#000000" stroke-width="0.8" stroke-linecap="butt" stroke-linejoin="miter" stroke-miterlimit="4" stroke-dashoffset="0" stroke-dasharray="" transform="translate(164.062712311 117.74544252)" d="M 0 0m 0 2.125984252l 5.669291339 -2.125984252v 4.251968504l -5.669291339 -2.125984252Z "/><path fill="none" stroke="#000000" stroke-width="0.8" stroke-linecap="butt" stroke-linejoin="miter" stroke-miterlimit="4" transform="translate(175.401294988 63.178513386)" d="M 0 0m 103.175760131 0h -103.175760131"/><path fill="#000000" fill-rule="nonzero" stroke="#000000" stroke-width="0.8" stroke-linecap="butt" stroke-linejoin="miter" stroke-miterlimit="4" stroke-dashoffset="0" stroke-dasharray="" transform="translate(169.73200365 61.052529134)" d="M 0 0m 0 2.125984252l 5.669291339 -2.125984252v 4.251968504l -5.669291339 -2.125984252Z "/><path fill="none" stroke="#000000" stroke-width="0.8" stroke-linecap="butt" stroke-linejoin="miter" stroke-miterlimit="4" transform="translate(181.070586326 148.217883465)" d="M 0 0m 97.506468792 0h -97.506468792"/><path fill="#000000" fill-rule="nonzero" stroke="#000000" stroke-width="0.8" stroke-linecap="butt" stroke-linejoin="miter" stroke-miterlimit="4" stroke-dashoffset="0" stroke-dasharray="" transform="translate(175.401294989 146.091899213)" d="M 0 0m 0 2.125984252l 5.669291339 -2.125984252v 4.251968504l -5.669291339 -2.125984252Z "/><path fill="none" transform="translate(59.838913386 56.692913386)" d="M 0 0h 7.744v 12.9712h -7.744v -12.9712Z "/><g transform="translate(59.83891326 56.69291326)"><g transform="matrix(1 0 0 -1 0 12.9712)"><use xlink:href="#gA8BC0EE666643F01269E5E68758CFF85" x="0" y="0" fill="#000000" fill-rule="nonzero"/></g></g><path fill="none" transform="translate(86.213070079 141.732283465)" d="M 0 0h 11.6886v 12.9712h -11.6886v -12.9712Z "/><g transform="translate(86.213069984 141.732283339)"><g transform="matrix(1 0 0 -1 0 12.9712)"><use xlink:href="#g296F7DE2C4A6B499DB3F193874AF1EA5" x="0" y="0" fill="#000000" fill-rule="nonzero"/></g></g><path fill="none" transform="translate(284.335766929 141.732283465)" d="M 0 0h 12.2936v 12.9712h -12.2936v -12.9712Z "/><g transform="translate(284.335766913 141.732283339)"><g transform="matrix(1 0 0 -1 0 12.9712)"><use xlink:href="#g16D855EB88C6A5125FE3445A0461B45C" x="0" y="0" fill="#000000" fill-rule="nonzero"/></g></g><path fill="none" transform="translate(138.295883465 226.771653543)" d="M 0 0h 20.9088v 12.9712h -20.9088v -12.9712Z "/><g transform="translate(138.295883465 226.771653417)"><g transform="matrix(1 0 0 -1 0 12.9712)"><use xlink:href="#g45E0B0389A62AE57D1CDEF9F50AC639" x="0" y="0" fill="#000000" fill-rule="nonzero"/></g></g><path fill="none" transform="translate(283.041066929 255.118110236)" d="M 0 0h 14.883v 12.9712h -14.883v -12.9712Z "/><g transform="translate(283.041066882 255.11811011)"><g transform="matrix(1 0 0 -1 0 12.9712)"><use xlink:href="#gD56E544F340AEF4947DD48E8CFE30DE2" x="0" y="0" fill="#000000" fill-rule="nonzero"/></g></g><path fill="none" d="M 0 0h 14.036v 12.9712h -14.036v -12.9712Z "/><g transform="translate(-1.6e-8 -1.26e-7)"><g transform="matrix(1 0 0 -1 0 12.9712)"><use xlink:href="#g17CC4092E033F56CE983B08814BB3905" x="0" y="0" fill="#000000" fill-rule="nonzero"/><use xlink:href="#gA6370075F4327DFA7FB6A3E5F55F3965" x="6.2436" y="0" fill="#000000" fill-rule="nonzero"/></g></g><path fill="none" transform="translate(24.668056693 113.385826772)" d="M 0 0h 21.3928v 12.9712h -21.3928v -12.9712Z "/><g transform="translate(24.668056614 113.385826646)"><g transform="matrix(1 0 0 -1 0 12.9712)"><use xlink:href="#gA4A424F9A565E28DD99010B075C517C8" x="0" y="0" fill="#000000" fill-rule="nonzero"/><use xlink:href="#gA8BC0EE666643F01269E5E68758CFF85" x="13.6488" y="0" fill="#000000" fill-rule="nonzero"/></g></g><path fill="none" transform="translate(335.801480315)" d="M 0 0h 22.748v 12.9712h -22.748v -12.9712Z "/><g transform="translate(335.801480299 -1.26e-7)"><g transform="matrix(1 0 0 -1 0 12.9712)"><use xlink:href="#gD3DFEEFB4A313974FDCAC7969BE4D62C" x="0" y="0" fill="#000000" fill-rule="nonzero"/><use xlink:href="#gA6370075F4327DFA7FB6A3E5F55F3965" x="14.9556" y="0" fill="#000000" fill-rule="nonzero"/></g></g><path fill="none" transform="translate(387.920593701)" d="M 0 0h 31.8956v 12.9712h -31.8956v -12.9712Z "/><g transform="translate(387.920593685 -1.26e-7)"><g transform="matrix(1 0 0 -1 0 12.9712)"><use xlink:href="#gD3DFEEFB4A313974FDCAC7969BE4D62C" x="0" y="0" fill="#000000" fill-rule="nonzero"/><use xlink:href="#gA6370075F4327DFA7FB6A3E5F55F3965" x="14.9556" y="0" fill="#000000" fill-rule="nonzero"/><use xlink:href="#g3F9E61967FA1CD90EA2409D16779097" x="22.748" y="0" fill="#000000" fill-rule="nonzero"/></g></g><path fill="none" transform="translate(332.534480315 113.385826772)" d="M 0 0h 29.282v 12.9712h -29.282v -12.9712Z "/><g transform="translate(332.534480299 113.385826646)"><g transform="matrix(1 0 0 -1 0 12.9712)"><use xlink:href="#g84B319C1E83324F69FC97A81530281CB" x="0" y="0" fill="#000000" fill-rule="nonzero"/><use xlink:href="#gAF28D1D7DA65739AD081520336DC45DE" x="14.641" y="0" fill="#000000" fill-rule="nonzero"/></g></g><path fill="none" transform="translate(384.653593701 113.385826772)" d="M 0 0h 38.4296v 12.9712h -38.4296v -12.9712Z "/><g transform="translate(384.653593685 113.385826646)"><g transform="matrix(1 0 0 -1 0 12.9712)"><use xlink:href="#g84B319C1E83324F69FC97A81530281CB" x="0" y="0" fill="#000000" fill-rule="nonzero"/><use xlink:href="#gAF28D1D7DA65739AD081520336DC45DE" x="14.641" y="0" fill="#000000" fill-rule="nonzero"/><use xlink:href="#g3F9E61967FA1CD90EA2409D16779097" x="29.282" y="0" fill="#000000" fill-rule="nonzero"/></g></g><path fill="none" transform="translate(283.162066929 56.692913386)" d="M 0 0h 14.641v 12.9712h -14.641v -12.9712Z "/><g transform="translate(283.16206685 56.69291326)"><g transform="matrix(1 0 0 -1 0 12.9712)"><use xlink:href="#gAF28D1D7DA65739AD081520336DC45DE" x="0" y="0" fill="#000000" fill-rule="nonzero"/></g></g></g></g><defs><symbol id="gA8BC0EE666643F01269E5E68758CFF85" overflow="visible"><path d="M 0 0m 6.8728 12.9712v -1.2584l -1.936 -0.4356v -9.6074l 1.936 -0.4114v -1.2584h -6.0016v 1.2584l 1.936 0.4114v 9.6074l -1.936 0.4356v 1.2584h 6.0016Z "/></symbol><symbol id="g296F7DE2C4A6B499DB3F193874AF1EA5" overflow="visible"><path d="M 0 0m 8.591 7.623v -1.7424h -1.7666q -1.2342 0 -2.0449 -0.2541q -0.8107 -0.2541 -1.21 -0.7381q -0.3993 -0.484 -0.3993 -1.2342q 0 -0.7986 0.4598 -1.2705q 0.4598 -0.4719 1.2342 -0.6776q 0.7744 -0.2057 1.7424 -0.2057q 1.3552 0 2.3837 0.3146q 1.0285 0.3146 1.8271 0.7018v -1.8634q -0.7502 -0.3872 -1.7908 -0.6413q -1.0406 -0.2541 -2.541 -0.2541q -2.783 0 -4.114 1.0769q -1.331 1.0769 -1.331 2.6983q 0 0.968 0.3993 1.5851q 0.3993 0.6171 1.0527 0.9922q 0.6534 0.3751 1.4278 0.5929v 0.121q -1.089 0.3388 -1.7545 1.0527q -0.6655 0.7139 -0.6655 1.8997q 0 1.089 0.6413 1.8634q 0.6413 0.7744 1.7666 1.1737q 1.1253 0.3993 2.5773 0.3993q 1.4036 0 2.4079 -0.242q 1.0043 -0.242 1.9723 -0.6776l -0.7986 -1.694q -0.7986 0.363 -1.6335 0.605q -0.8349 0.242 -1.9723 0.242q -1.452 0 -2.1901 -0.4598q -0.7381 -0.4598 -0.7381 -1.3794q 0 -1.0648 1.0043 -1.5246q 1.0043 -0.4598 2.6983 -0.4598h 1.3552Z "/></symbol><symbol id="g16D855EB88C6A5125FE3445A0461B45C" overflow="visible"><path d="M 0 0m 7.381 12.9712l 4.9126 -12.9712h -2.2748l -2.7588 7.6472q -0.1936 0.5324 -0.4114 1.1858q -0.2178 0.6534 -0.3872 1.2584q -0.1694 0.605 -0.242 0.9922h -0.0968q -0.0726 -0.3872 -0.2662 -1.0043q -0.1936 -0.6171 -0.4114 -1.2584q -0.2178 -0.6413 -0.4114 -1.1737l -2.7588 -7.6472h -2.2748l 4.9368 12.9712h 2.4442Z "/></symbol><symbol id="g45E0B0389A62AE57D1CDEF9F50AC639" overflow="visible"><path d="M 0 0m 14.5926 13.2132q 1.573 0 2.7104 -0.726q 1.1374 -0.726 1.7545 -2.0328q 0.6171 -1.3068 0.6171 -3.0492v -1.3068h -8.3006q 0.0484 -2.3232 1.0043 -3.4243q 0.9559 -1.1011 2.7467 -1.1011q 1.21 0 2.1296 0.2299q 0.9196 0.2299 1.8392 0.6655v -1.8634q -0.968 -0.4356 -1.8997 -0.6413q -0.9317 -0.2057 -2.1417 -0.2057q -1.1132 0 -2.0449 0.3025q -0.9317 0.3025 -1.6456 0.9196q -0.7139 0.6171 -1.2221 1.5125q -0.5566 -0.8228 -1.2221 -1.4399q -0.6655 -0.6171 -1.5488 -0.9559q -0.8833 -0.3388 -2.1417 -0.3388q -1.1616 0 -2.0933 0.4114q -0.9317 0.4114 -1.4762 1.2705q -0.5445 0.8591 -0.5445 2.1659q 0 1.3068 0.6413 2.2022q 0.6413 0.8954 1.9602 1.3915q 1.3189 0.4961 3.3033 0.5445l 2.178 0.0726v 0.8228q 0 1.573 -0.7381 2.2022q -0.7381 0.6292 -1.9723 0.6292q -0.968 0 -1.8997 -0.2904q -0.9317 -0.2904 -1.7303 -0.7018l -0.6534 1.5972q 0.847 0.484 2.057 0.7986q 1.21 0.3146 2.3958 0.3146q 1.5004 0 2.4805 -0.4961q 0.9801 -0.4961 1.4883 -1.5851q 0.6292 0.9922 1.6456 1.5488q 1.0164 0.5566 2.3232 0.5566Z m -7.26 -6.9454q -2.2748 -0.0968 -3.146 -0.7744q -0.8712 -0.6776 -0.8712 -1.9118q 0 -1.089 0.6171 -1.5972q 0.6171 -0.5082 1.6335 -0.5082q 1.0164 0 1.8271 0.3993q 0.8107 0.3993 1.2826 1.2221q 0.4719 0.8228 0.4719 2.0812v 1.1616l -1.815 -0.0726Z m 7.2358 5.203q -1.4036 0 -2.2143 -0.9559q -0.8107 -0.9559 -0.9317 -2.7467h 6.0016q 0 1.1132 -0.3025 1.9481q -0.3025 0.8349 -0.9317 1.2947q -0.6292 0.4598 -1.6214 0.4598Z "/></symbol><symbol id="gD56E544F340AEF4947DD48E8CFE30DE2" overflow="visible"><path d="M 0 0m 6.655 -0.242q -2.42 0 -3.872 1.6819q -1.452 1.6819 -1.452 5.0215q 0 3.3396 1.4641 5.0457q 1.4641 1.7061 3.8841 1.7061q 1.5004 0 2.4563 -0.5566q 0.9559 -0.5566 1.5609 -1.3552h 0.0968l 0.3388 1.6698h 1.694v -10.1156q 0 -0.7502 0.2904 -1.0527q 0.2904 -0.3025 0.7018 -0.3025q 0.1936 0 0.4114 0.0484q 0.2178 0.0484 0.3146 0.0726v -1.5488q -0.121 -0.0726 -0.3388 -0.1452q -0.2178 -0.0726 -0.484 -0.121q -0.2662 -0.0484 -0.5324 -0.0484q -0.9196 0 -1.5246 0.4356q -0.605 0.4356 -0.8712 1.5488h -0.0968q -0.5808 -0.8228 -1.5488 -1.4036q -0.968 -0.5808 -2.4926 -0.5808Z m 0.3388 1.7666q 1.3794 0 2.1901 0.4961q 0.8107 0.4961 1.1737 1.5125q 0.363 1.0164 0.363 2.5168v 0.3872q 0 2.42 -0.7986 3.7147q -0.7986 1.2947 -2.9524 1.2947q -1.7182 0 -2.5773 -1.3673q -0.8591 -1.3673 -0.8591 -3.6663q 0 -2.3232 0.8591 -3.6058q 0.8591 -1.2826 2.6015 -1.2826Z "/></symbol><symbol id="g17CC4092E033F56CE983B08814BB3905" overflow="visible"><path d="M 0 0m 4.1866 12.9712v -12.9712h -2.1296v 12.9712h 2.1296Z m -1.0406 4.8642q 0.484 0 0.8591 -0.3267q 0.3751 -0.3267 0.3751 -1.0285q 0 -0.6776 -0.3751 -1.0164q -0.3751 -0.3388 -0.8591 -0.3388q -0.5324 0 -0.8954 0.3388q -0.363 0.3388 -0.363 1.0164q 0 0.7018 0.363 1.0285q 0.363 0.3267 0.8954 0.3267Z "/></symbol><symbol id="gA6370075F4327DFA7FB6A3E5F55F3965" overflow="visible"><path d="M 0 0m 3.8962 9.6074l -2.1538 3.3638h 4.3076l -2.1538 -3.3638Z m -2.1538 -9.6074l 2.1538 3.3638l 2.1538 -3.3638h -4.3076Z "/></symbol><symbol id="gA4A424F9A565E28DD99010B075C517C8" overflow="visible"><path d="M 0 0m 7.0664 13.2132q 1.6698 0 2.8677 -0.726q 1.1979 -0.726 1.8392 -2.0449q 0.6413 -1.3189 0.6413 -3.0855v -1.2826h -8.8814q 0.0484 -2.2022 1.1253 -3.3517q 1.0769 -1.1495 3.0129 -1.1495q 1.2342 0 2.1901 0.2299q 0.9559 0.2299 1.9723 0.6655v -1.8634q -0.9922 -0.4356 -1.9602 -0.6413q -0.968 -0.2057 -2.299 -0.2057q -1.8392 0 -3.2549 0.7502q -1.4157 0.7502 -2.2022 2.2385q -0.7865 1.4883 -0.7865 3.6421q 0 2.1296 0.7139 3.6542q 0.7139 1.5246 2.0086 2.3474q 1.2947 0.8228 3.0129 0.8228Z m -0.0242 -1.7424q -1.5246 0 -2.4079 -0.9801q -0.8833 -0.9801 -1.0527 -2.7225h 6.6066q 0 1.1132 -0.3388 1.936q -0.3388 0.8228 -1.0285 1.2947q -0.6897 0.4719 -1.7787 0.4719Z "/></symbol><symbol id="gD3DFEEFB4A313974FDCAC7969BE4D62C" overflow="visible"><path d="M 0 0m 12.8986 12.9712v -12.9712h -1.7424l -0.3146 1.7182h -0.0968q -0.4114 -0.6776 -1.0648 -1.1132q -0.6534 -0.4356 -1.4278 -0.6413q -0.7744 -0.2057 -1.6214 -0.2057q -1.5488 0 -2.6015 0.4961q -1.0527 0.4961 -1.5851 1.5367q -0.5324 1.0406 -0.5324 2.6862v 8.4942h 2.1538v -8.349q 0 -1.5488 0.7018 -2.3232q 0.7018 -0.7744 2.178 -0.7744q 1.452 0 2.2869 0.5445q 0.8349 0.5445 1.1858 1.5972q 0.3509 1.0527 0.3509 2.5531v 6.7518h 2.1296Z "/></symbol><symbol id="g3F9E61967FA1CD90EA2409D16779097" overflow="visible"><path d="M 0 0m 3.509 8.954q -0.2178 0.0968 -0.4235 0.1573q -0.2057 0.0605 -0.3993 0.0605q -0.5808 0 -0.8712 -0.3509q -0.2904 -0.3509 -0.4598 -1.0527h -1.2342q 0.0968 0.968 0.4356 1.6577q 0.3388 0.6897 0.9075 1.0648q 0.5687 0.3751 1.3189 0.3751q 0.1936 0 0.3751 -0.0363q 0.1815 -0.0363 0.3509 -0.0847v 7.6472h 2.1296v -8.6878q 0.2178 -0.0968 0.4356 -0.1573q 0.2178 -0.0605 0.4114 -0.0605q 0.5566 0 0.8591 0.3509q 0.3025 0.3509 0.4719 1.0527h 1.21q -0.0968 -0.9438 -0.4356 -1.6335q -0.3388 -0.6897 -0.8833 -1.0769q -0.5445 -0.3872 -1.3189 -0.3872q -0.1936 0 -0.3751 0.0363q -0.1815 0.0363 -0.3751 0.0847v -7.9134h -2.1296v 8.954Z "/></symbol><symbol id="g84B319C1E83324F69FC97A81530281CB" overflow="visible"><path d="M 0 0m 13.3342 6.5098q 0 -1.6214 -0.4235 -2.8677q -0.4235 -1.2463 -1.21 -2.1175q -0.7865 -0.8712 -1.9118 -1.3189q -1.1253 -0.4477 -2.5047 -0.4477q -1.2826 0 -2.3716 0.4477q -1.089 0.4477 -1.8876 1.3189q -0.7986 0.8712 -1.2463 2.1175q -0.4477 1.2463 -0.4477 2.8677q 0 2.1538 0.726 3.6421q 0.726 1.4883 2.0812 2.2748q 1.3552 0.7865 3.2186 0.7865q 1.7666 0 3.1097 -0.7865q 1.3431 -0.7865 2.1054 -2.2748q 0.7623 -1.4883 0.7623 -3.6421Z m -9.801 0q 0 -1.5246 0.3993 -2.6499q 0.3993 -1.1253 1.2463 -1.7303q 0.847 -0.605 2.1538 -0.605q 1.3068 0 2.1538 0.605q 0.847 0.605 1.2463 1.7303q 0.3993 1.1253 0.3993 2.6499q 0 1.5488 -0.4114 2.6378q -0.4114 1.089 -1.2463 1.6819q -0.8349 0.5929 -2.1659 0.5929q -1.9844 0 -2.8798 -1.3068q -0.8954 -1.3068 -0.8954 -3.6058Z "/></symbol><symbol id="gAF28D1D7DA65739AD081520336DC45DE" overflow="visible"><path d="M 0 0m 7.2842 -0.242q -1.7182 0 -3.0613 0.7381q -1.3431 0.7381 -2.1175 2.1054q -0.7744 1.3673 -0.7744 3.2549q 0 1.21 0.2904 2.178q 0.2904 0.968 0.8591 1.7545q 0.5687 0.7865 1.3915 1.4157h -3.146v 1.7666h 5.7112v -1.6698q -1.1616 -0.5324 -2.0328 -1.9481q -0.8712 -1.4157 -0.8712 -3.4969q 0 -1.9118 0.9075 -3.1218q 0.9075 -1.21 2.8919 -1.21q 1.3068 0 2.1538 0.5445q 0.847 0.5445 1.2463 1.5367q 0.3993 0.9922 0.3993 2.2748q 0 1.2342 -0.4114 2.3474q -0.4114 1.1132 -1.0769 1.936q -0.6655 0.8228 -1.4399 1.1374v 1.6698h 5.7112v -1.7666h -3.146q 0.847 -0.6776 1.4157 -1.5004q 0.5687 -0.8228 0.8591 -1.7787q 0.2904 -0.9559 0.2904 -2.0449q 0 -1.9118 -0.7381 -3.2791q -0.7381 -1.3673 -2.0933 -2.1054q -1.3552 -0.7381 -3.2186 -0.7381Z "/></symbol></defs></svg>